<?xml version="1.0" encoding="utf-8"?>
<!-- Generator: Adobe Illustrator 16.0.0, SVG Export Plug-In . SVG Version: 6.00 Build 0)  -->
<!DOCTYPE svg PUBLIC "-//W3C//DTD SVG 1.1//EN" "http://www.w3.org/Graphics/SVG/1.1/DTD/svg11.dtd">
<svg version="1.1" id="Ebene_1" xmlns="http://www.w3.org/2000/svg" xmlns:xlink="http://www.w3.org/1999/xlink" x="0px" y="0px"
	 width="202px" height="108px" viewBox="0 0 202 108" enable-background="new 0 0 202 108" xml:space="preserve">
<g>
	<path fill="#B20933" d="M6.665,14.572h63.611c0,0,4.389-0.362,4.389,4.69c0,4.509,0,38.83,0,38.83h-68V14.572z"/>
	<rect x="29.15" y="20.326" fill="#FFFFFF" width="8.618" height="8.616"/>
	<rect x="9.937" y="34.602" fill="#FFFFFF" width="3.817" height="1.524"/>
	<path fill="#FFFFFF" d="M13.552,52.351V34.586V24.171c0,0-0.366-3.83,3.66-3.83c4.139,0,10.402,0,10.402,0v1.505h-2.782
		c0,0-2.679-0.119-2.679,2.765c0,2.669,0,11.355,0,11.355v16.385H13.552z"/>
	<path fill="#FFFFFF" d="M23.685,34.605h41.102c0,0,4.224-0.356,4.224,3.999c0,4.087,0,13.639,0,13.639h-8.556V38.837
		c0,0,0.043-2.73-2.623-2.73c-2.271,0-4.398,0-4.398,0v16.137h-8.609V38.838c0,0,0.058-2.776-2.621-2.776c-2.816,0-4.439,0-4.439,0
		V52.32h-8.629V36.106h-5.449V34.605z"/>
	<g>
		<path fill="#B20933" d="M11.396,72.415l-2.415-3.941l-1.141,1.619v2.322H6.671v-8.567h1.169v4.661l3.182-4.661h1.304l-2.562,3.713
			l2.924,4.854H11.396z"/>
		<path fill="#B20933" d="M18.379,69.392h-4.515c0,0.732,0.201,1.296,0.603,1.69c0.354,0.343,0.811,0.515,1.368,0.515
			c0.636,0,1.166-0.186,1.591-0.556l0.468,0.801c-0.171,0.172-0.435,0.32-0.79,0.444c-0.444,0.164-0.939,0.246-1.485,0.246
			c-0.788,0-1.456-0.268-2.006-0.802c-0.612-0.588-0.918-1.38-0.918-2.374c0-1.033,0.313-1.861,0.941-2.485
			c0.562-0.558,1.226-0.837,1.994-0.837c0.893,0,1.593,0.252,2.1,0.755c0.491,0.483,0.737,1.125,0.737,1.924
			C18.467,68.959,18.438,69.185,18.379,69.392z M15.683,66.971c-0.495,0-0.911,0.159-1.246,0.479
			c-0.32,0.304-0.501,0.682-0.544,1.134h3.468c0-0.448-0.14-0.822-0.421-1.122C16.632,67.134,16.213,66.971,15.683,66.971z"/>
		<path fill="#B20933" d="M23.041,67.222c-0.242-0.168-0.485-0.251-0.731-0.251c-0.394,0-0.738,0.181-1.032,0.543
			c-0.294,0.363-0.442,0.8-0.442,1.311v3.591h-1.111v-6.264h1.111v1c0.406-0.744,1.008-1.117,1.807-1.117
			c0.199,0,0.485,0.035,0.86,0.105L23.041,67.222z"/>
		<path fill="#B20933" d="M28.146,72.415v-3.644c0-0.667-0.101-1.134-0.301-1.4c-0.201-0.268-0.537-0.4-1.009-0.4
			c-0.253,0-0.519,0.075-0.795,0.228s-0.489,0.339-0.637,0.562v4.655h-1.111v-6.264h0.76l0.351,0.808
			c0.366-0.616,0.965-0.925,1.795-0.925c1.372,0,2.059,0.835,2.059,2.504v3.877H28.146z"/>
		<path fill="#B20933" d="M34.883,72.415l-1.965-3.135l-0.971,1v2.135h-1.111v-8.831h1.111v5.479l2.397-2.912h1.298l-2.006,2.381
			l2.451,3.883H34.883z"/>
		<path fill="#B20933" d="M36.469,69.269c0-0.967,0.26-1.748,0.781-2.342c0.52-0.595,1.206-0.893,2.056-0.893
			c0.896,0,1.592,0.286,2.087,0.857s0.743,1.363,0.743,2.377c0,1.01-0.254,1.807-0.76,2.389c-0.507,0.583-1.197,0.875-2.07,0.875
			c-0.893,0-1.589-0.295-2.088-0.884C36.718,71.061,36.469,70.267,36.469,69.269z M37.638,69.269c0,1.571,0.556,2.357,1.667,2.357
			c0.518,0,0.925-0.211,1.219-0.632s0.441-0.996,0.441-1.726c0-1.552-0.554-2.327-1.661-2.327c-0.507,0-0.912,0.206-1.214,0.619
			C37.789,67.975,37.638,68.543,37.638,69.269z"/>
		<path fill="#B20933" d="M50.557,72.415V68.45c0-0.986-0.427-1.479-1.281-1.479c-0.269,0-0.521,0.082-0.754,0.248
			s-0.394,0.354-0.479,0.564v4.632h-1.111v-4.45c0-0.309-0.116-0.551-0.348-0.729s-0.539-0.266-0.921-0.266
			c-0.222,0-0.459,0.085-0.71,0.257s-0.43,0.36-0.535,0.567v4.62h-1.111v-6.264h0.725l0.369,0.726
			c0.429-0.562,0.965-0.843,1.608-0.843c0.897,0,1.524,0.279,1.883,0.837c0.125-0.238,0.357-0.437,0.696-0.597
			c0.339-0.16,0.688-0.24,1.046-0.24c0.647,0,1.148,0.192,1.503,0.576c0.354,0.385,0.532,0.924,0.532,1.617v4.188H50.557z"/>
		<path fill="#B20933" d="M54.359,72.07v2.801h-1.111v-8.72h1.111v0.515c0.421-0.421,0.93-0.632,1.526-0.632
			c0.889,0,1.581,0.277,2.076,0.831s0.743,1.364,0.743,2.433c0,0.951-0.25,1.729-0.749,2.331c-0.499,0.602-1.221,0.903-2.164,0.903
			c-0.265,0-0.549-0.047-0.851-0.141C54.639,72.298,54.444,72.19,54.359,72.07z M54.359,67.503v3.648
			c0.07,0.105,0.218,0.206,0.444,0.302s0.446,0.144,0.661,0.144c1.38,0,2.07-0.78,2.07-2.34c0-0.791-0.164-1.37-0.491-1.737
			c-0.327-0.366-0.852-0.549-1.573-0.549c-0.156,0-0.347,0.054-0.573,0.163C54.67,67.243,54.491,67.366,54.359,67.503z"/>
		<path fill="#B20933" d="M65.196,69.392h-4.515c0,0.732,0.201,1.296,0.603,1.69c0.354,0.343,0.811,0.515,1.368,0.515
			c0.636,0,1.166-0.186,1.591-0.556l0.468,0.801c-0.171,0.172-0.435,0.32-0.79,0.444c-0.444,0.164-0.939,0.246-1.485,0.246
			c-0.788,0-1.456-0.268-2.006-0.802c-0.612-0.588-0.918-1.38-0.918-2.374c0-1.033,0.313-1.861,0.941-2.485
			c0.562-0.558,1.226-0.837,1.994-0.837c0.893,0,1.593,0.252,2.1,0.755c0.491,0.483,0.737,1.125,0.737,1.924
			C65.283,68.959,65.254,69.185,65.196,69.392z M62.5,66.971c-0.495,0-0.911,0.159-1.246,0.479c-0.32,0.304-0.501,0.682-0.544,1.134
			h3.468c0-0.448-0.14-0.822-0.421-1.122C63.449,67.134,63.03,66.971,62.5,66.971z"/>
		<path fill="#B20933" d="M66.851,67.028h-0.725v-0.877h0.725v-1.31l1.111-0.428v1.737h1.719v0.877h-1.719v3.111
			c0,0.526,0.089,0.901,0.266,1.123c0.177,0.223,0.463,0.334,0.857,0.334c0.285,0,0.579-0.072,0.883-0.217l0.164,0.977
			c-0.46,0.117-0.965,0.176-1.515,0.176c-0.496,0-0.914-0.185-1.255-0.553c-0.341-0.368-0.512-0.834-0.512-1.395V67.028z"/>
		<path fill="#B20933" d="M76.478,69.392h-4.515c0,0.732,0.201,1.296,0.603,1.69c0.354,0.343,0.811,0.515,1.368,0.515
			c0.636,0,1.166-0.186,1.591-0.556l0.468,0.801c-0.171,0.172-0.435,0.32-0.79,0.444c-0.444,0.164-0.939,0.246-1.485,0.246
			c-0.788,0-1.456-0.268-2.006-0.802c-0.612-0.588-0.918-1.38-0.918-2.374c0-1.033,0.313-1.861,0.941-2.485
			c0.562-0.558,1.226-0.837,1.994-0.837c0.893,0,1.593,0.252,2.1,0.755c0.491,0.483,0.737,1.125,0.737,1.924
			C76.565,68.959,76.536,69.185,76.478,69.392z M73.781,66.971c-0.495,0-0.911,0.159-1.246,0.479
			c-0.32,0.304-0.501,0.682-0.544,1.134h3.468c0-0.448-0.14-0.822-0.421-1.122C74.73,67.134,74.312,66.971,73.781,66.971z"/>
		<path fill="#B20933" d="M81.589,72.415v-3.644c0-0.667-0.101-1.134-0.301-1.4c-0.201-0.268-0.537-0.4-1.009-0.4
			c-0.253,0-0.519,0.075-0.795,0.228s-0.489,0.339-0.637,0.562v4.655h-1.111v-6.264h0.76l0.351,0.808
			c0.366-0.616,0.965-0.925,1.795-0.925c1.372,0,2.059,0.835,2.059,2.504v3.877H81.589z"/>
		<path fill="#B20933" d="M85.466,71.421h3.474v0.994h-5.217v-0.292l3.562-4.978h-3.503v-0.994h5.123v0.316L85.466,71.421z"/>
		<path fill="#B20933" d="M91.151,71.421h3.474v0.994h-5.217v-0.292l3.562-4.978h-3.503v-0.994h5.123v0.316L91.151,71.421z"/>
		<path fill="#B20933" d="M100.924,69.392h-4.515c0,0.732,0.201,1.296,0.603,1.69c0.354,0.343,0.811,0.515,1.368,0.515
			c0.636,0,1.166-0.186,1.591-0.556l0.468,0.801c-0.171,0.172-0.435,0.32-0.79,0.444c-0.444,0.164-0.939,0.246-1.485,0.246
			c-0.788,0-1.456-0.268-2.006-0.802c-0.612-0.588-0.918-1.38-0.918-2.374c0-1.033,0.313-1.861,0.941-2.485
			c0.562-0.558,1.226-0.837,1.994-0.837c0.893,0,1.593,0.252,2.1,0.755c0.491,0.483,0.737,1.125,0.737,1.924
			C101.011,68.959,100.982,69.185,100.924,69.392z M98.228,66.971c-0.495,0-0.911,0.159-1.246,0.479
			c-0.32,0.304-0.501,0.682-0.544,1.134h3.468c0-0.448-0.14-0.822-0.421-1.122C99.177,67.134,98.758,66.971,98.228,66.971z"/>
		<path fill="#B20933" d="M106.035,72.415v-3.644c0-0.667-0.101-1.134-0.301-1.4c-0.201-0.268-0.537-0.4-1.009-0.4
			c-0.253,0-0.519,0.075-0.795,0.228s-0.489,0.339-0.637,0.562v4.655h-1.111v-6.264h0.76l0.351,0.808
			c0.366-0.616,0.965-0.925,1.795-0.925c1.372,0,2.059,0.835,2.059,2.504v3.877H106.035z"/>
		<path fill="#B20933" d="M109.123,67.028h-0.725v-0.877h0.725v-1.31l1.111-0.428v1.737h1.719v0.877h-1.719v3.111
			c0,0.526,0.089,0.901,0.266,1.123c0.177,0.223,0.463,0.334,0.857,0.334c0.285,0,0.579-0.072,0.883-0.217l0.164,0.977
			c-0.46,0.117-0.965,0.176-1.515,0.176c-0.496,0-0.914-0.185-1.255-0.553c-0.341-0.368-0.512-0.834-0.512-1.395V67.028z"/>
		<path fill="#B20933" d="M116.878,67.222c-0.242-0.168-0.485-0.251-0.731-0.251c-0.394,0-0.738,0.181-1.032,0.543
			c-0.294,0.363-0.442,0.8-0.442,1.311v3.591h-1.111v-6.264h1.111v1c0.406-0.744,1.008-1.117,1.807-1.117
			c0.199,0,0.485,0.035,0.86,0.105L116.878,67.222z"/>
		<path fill="#B20933" d="M119.183,66.151v3.994c0,0.968,0.419,1.451,1.257,1.451c0.366,0,0.702-0.105,1.006-0.316
			c0.304-0.21,0.505-0.454,0.603-0.73v-4.398h1.111v6.264h-1.111V71.55c-0.125,0.245-0.375,0.471-0.751,0.675
			c-0.376,0.205-0.744,0.308-1.103,0.308c-0.687,0-1.211-0.197-1.576-0.591s-0.547-0.953-0.547-1.679v-4.111H119.183z"/>
		<path fill="#B20933" d="M131.926,72.415V68.45c0-0.986-0.427-1.479-1.281-1.479c-0.269,0-0.521,0.082-0.754,0.248
			s-0.394,0.354-0.479,0.564v4.632H128.3v-4.45c0-0.309-0.116-0.551-0.348-0.729s-0.539-0.266-0.921-0.266
			c-0.222,0-0.459,0.085-0.71,0.257s-0.43,0.36-0.535,0.567v4.62h-1.111v-6.264h0.725l0.369,0.726
			c0.429-0.562,0.965-0.843,1.608-0.843c0.897,0,1.524,0.279,1.883,0.837c0.125-0.238,0.357-0.437,0.696-0.597
			c0.339-0.16,0.688-0.24,1.046-0.24c0.647,0,1.148,0.192,1.503,0.576c0.354,0.385,0.532,0.924,0.532,1.617v4.188H131.926z"/>
		<path fill="#B20933" d="M7.841,79.273v2.38h3.012v0.994H7.841v4.141H6.671v-8.567h5.292v1.053H7.841z"/>
		<path fill="#B20933" d="M13.409,86.788V81.46h-0.86v-0.936h1.971v6.264H13.409z M14.017,78.156c0.191,0,0.354,0.067,0.488,0.201
			c0.134,0.135,0.202,0.296,0.202,0.482c0,0.191-0.067,0.354-0.202,0.488c-0.135,0.135-0.297,0.202-0.488,0.202
			c-0.188,0-0.348-0.067-0.483-0.202c-0.134-0.134-0.202-0.297-0.202-0.488c0-0.19,0.066-0.353,0.199-0.485
			C13.664,78.223,13.826,78.156,14.017,78.156z"/>
		<path fill="#B20933" d="M20.14,86.788v-3.644c0-0.667-0.101-1.134-0.301-1.4c-0.201-0.268-0.537-0.4-1.009-0.4
			c-0.253,0-0.519,0.075-0.795,0.228s-0.489,0.339-0.637,0.562v4.655h-1.111v-6.264h0.76l0.351,0.808
			c0.366-0.616,0.965-0.925,1.795-0.925c1.372,0,2.059,0.835,2.059,2.504v3.877H20.14z"/>
		<path fill="#B20933" d="M26.369,86.068c-0.444,0.558-1.125,0.837-2.041,0.837c-0.491,0-0.917-0.179-1.278-0.535
			c-0.361-0.357-0.541-0.801-0.541-1.331c0-0.635,0.278-1.172,0.833-1.61c0.556-0.439,1.264-0.658,2.126-0.658
			c0.234,0,0.499,0.051,0.795,0.151c0-1.014-0.453-1.521-1.357-1.521c-0.694,0-1.228,0.188-1.603,0.562l-0.468-0.93
			c0.21-0.172,0.502-0.318,0.875-0.441c0.372-0.123,0.728-0.185,1.067-0.185c0.909,0,1.568,0.207,1.98,0.62
			c0.411,0.413,0.617,1.07,0.617,1.971v2.246c0,0.55,0.164,0.916,0.491,1.1v0.556c-0.452,0-0.791-0.064-1.015-0.193
			S26.466,86.365,26.369,86.068z M26.264,83.712c-0.351-0.078-0.597-0.117-0.737-0.117c-0.562,0-1.02,0.145-1.375,0.433
			c-0.355,0.289-0.532,0.63-0.532,1.023c0,0.651,0.384,0.977,1.152,0.977c0.562,0,1.059-0.267,1.492-0.801V83.712z"/>
		<path fill="#B20933" d="M32.978,86.788v-3.644c0-0.667-0.101-1.134-0.301-1.4c-0.201-0.268-0.537-0.4-1.009-0.4
			c-0.253,0-0.519,0.075-0.795,0.228s-0.489,0.339-0.637,0.562v4.655h-1.111v-6.264h0.76l0.351,0.808
			c0.366-0.616,0.965-0.925,1.795-0.925c1.372,0,2.059,0.835,2.059,2.504v3.877H32.978z"/>
		<path fill="#B20933" d="M36.855,85.794h3.474v0.994h-5.217v-0.292l3.562-4.978h-3.503v-0.994h5.123v0.316L36.855,85.794z"/>
		<path fill="#B20933" d="M41.493,83.829v-1.023h2.503v1.023H41.493z"/>
		<path fill="#B20933" d="M54.002,86.49c-0.565,0.276-1.248,0.415-2.047,0.415c-0.815,0-1.445-0.241-1.889-0.723
			S49.4,85.02,49.4,84.139c0-0.452,0.067-0.844,0.202-1.176c0.134-0.331,0.381-0.674,0.74-1.029
			c-0.55-0.546-0.825-1.112-0.825-1.701c0-0.597,0.225-1.106,0.676-1.529c0.45-0.424,1.054-0.635,1.81-0.635
			c0.803,0,1.423,0.178,1.86,0.532l-0.486,0.9c-0.444-0.37-0.842-0.556-1.193-0.556c-1.037,0-1.556,0.468-1.556,1.403
			c0,0.508,0.226,0.937,0.678,1.287h2.176v-1.07l1.111-0.427v1.515h1.456v0.936h-1.456v1.93c0,0.538,0.072,0.905,0.216,1.1
			c0.144,0.195,0.394,0.293,0.749,0.293c0.21,0,0.458-0.072,0.743-0.217l0.158,1.035c-0.409,0.117-0.877,0.176-1.403,0.176
			C54.692,86.905,54.342,86.767,54.002,86.49z M53.482,84.952v-2.363h-2.357c-0.371,0.476-0.556,0.975-0.556,1.497
			c0,1.217,0.595,1.825,1.784,1.825c0.53,0,0.928-0.096,1.193-0.287C53.503,85.445,53.482,85.221,53.482,84.952z"/>
		<path fill="#B20933" d="M61.716,86.788v-8.567h1.169v8.567H61.716z"/>
		<path fill="#B20933" d="M68.611,86.788v-3.644c0-0.667-0.101-1.134-0.301-1.4c-0.201-0.268-0.537-0.4-1.009-0.4
			c-0.253,0-0.519,0.075-0.795,0.228s-0.489,0.339-0.637,0.562v4.655h-1.111v-6.264h0.76l0.351,0.808
			c0.366-0.616,0.965-0.925,1.795-0.925c1.372,0,2.059,0.835,2.059,2.504v3.877H68.611z"/>
		<path fill="#B20933" d="M74.688,78.951c-0.226-0.078-0.437-0.117-0.632-0.117c-0.339,0-0.619,0.129-0.839,0.387
			c-0.221,0.257-0.331,0.583-0.331,0.977c0,0.105,0.01,0.214,0.029,0.327h1.275v0.936h-1.275v5.328h-1.111V81.46h-0.912v-0.936
			h0.912c0-0.799,0.197-1.427,0.591-1.883c0.394-0.456,0.914-0.685,1.562-0.685c0.323,0,0.67,0.059,1.041,0.176L74.688,78.951z"/>
		<path fill="#B20933" d="M75.32,83.642c0-0.967,0.26-1.748,0.781-2.342c0.52-0.595,1.206-0.893,2.056-0.893
			c0.896,0,1.592,0.286,2.087,0.857s0.743,1.363,0.743,2.377c0,1.01-0.254,1.807-0.76,2.389c-0.507,0.583-1.197,0.875-2.07,0.875
			c-0.893,0-1.589-0.295-2.088-0.884C75.569,85.434,75.32,84.64,75.32,83.642z M76.489,83.642c0,1.571,0.556,2.357,1.667,2.357
			c0.518,0,0.925-0.211,1.219-0.632s0.441-0.996,0.441-1.726c0-1.552-0.554-2.327-1.661-2.327c-0.507,0-0.912,0.206-1.214,0.619
			C76.64,82.348,76.489,82.916,76.489,83.642z"/>
		<path fill="#B20933" d="M85.56,81.595c-0.242-0.168-0.485-0.251-0.731-0.251c-0.394,0-0.738,0.181-1.032,0.543
			c-0.294,0.363-0.442,0.8-0.442,1.311v3.591h-1.111v-6.264h1.111v1c0.406-0.744,1.008-1.117,1.807-1.117
			c0.199,0,0.485,0.035,0.86,0.105L85.56,81.595z"/>
		<path fill="#B20933" d="M94.063,86.788v-3.965c0-0.986-0.427-1.479-1.281-1.479c-0.269,0-0.521,0.082-0.754,0.248
			s-0.394,0.354-0.479,0.564v4.632h-1.111v-4.45c0-0.309-0.116-0.551-0.348-0.729s-0.539-0.266-0.921-0.266
			c-0.222,0-0.459,0.085-0.71,0.257s-0.43,0.36-0.535,0.567v4.62h-1.111v-6.264h0.725l0.369,0.726
			c0.429-0.562,0.965-0.843,1.608-0.843c0.897,0,1.524,0.279,1.883,0.837c0.125-0.238,0.357-0.437,0.696-0.597
			c0.339-0.16,0.688-0.24,1.046-0.24c0.647,0,1.148,0.192,1.503,0.576c0.354,0.385,0.532,0.924,0.532,1.617v4.188H94.063z"/>
		<path fill="#B20933" d="M100.292,86.068c-0.444,0.558-1.125,0.837-2.041,0.837c-0.491,0-0.917-0.179-1.278-0.535
			c-0.361-0.357-0.541-0.801-0.541-1.331c0-0.635,0.278-1.172,0.833-1.61c0.556-0.439,1.264-0.658,2.126-0.658
			c0.234,0,0.499,0.051,0.795,0.151c0-1.014-0.453-1.521-1.357-1.521c-0.694,0-1.228,0.188-1.603,0.562l-0.468-0.93
			c0.21-0.172,0.502-0.318,0.875-0.441c0.372-0.123,0.728-0.185,1.067-0.185c0.909,0,1.568,0.207,1.98,0.62
			c0.411,0.413,0.617,1.07,0.617,1.971v2.246c0,0.55,0.164,0.916,0.491,1.1v0.556c-0.452,0-0.791-0.064-1.015-0.193
			S100.39,86.365,100.292,86.068z M100.187,83.712c-0.351-0.078-0.597-0.117-0.737-0.117c-0.562,0-1.02,0.145-1.375,0.433
			c-0.355,0.289-0.532,0.63-0.532,1.023c0,0.651,0.384,0.977,1.152,0.977c0.562,0,1.059-0.267,1.492-0.801V83.712z"/>
		<path fill="#B20933" d="M103.444,81.401h-0.725v-0.877h0.725v-1.31l1.111-0.428v1.737h1.719v0.877h-1.719v3.111
			c0,0.526,0.089,0.901,0.266,1.123c0.177,0.223,0.463,0.334,0.857,0.334c0.285,0,0.579-0.072,0.883-0.217l0.164,0.977
			c-0.46,0.117-0.965,0.176-1.515,0.176c-0.496,0-0.914-0.185-1.255-0.553c-0.341-0.368-0.512-0.834-0.512-1.395V81.401z"/>
		<path fill="#B20933" d="M108.334,86.788V81.46h-0.86v-0.936h1.971v6.264H108.334z M108.942,78.156
			c0.191,0,0.354,0.067,0.488,0.201c0.134,0.135,0.202,0.296,0.202,0.482c0,0.191-0.067,0.354-0.202,0.488
			c-0.135,0.135-0.297,0.202-0.488,0.202c-0.188,0-0.348-0.067-0.483-0.202c-0.134-0.134-0.202-0.297-0.202-0.488
			c0-0.19,0.066-0.353,0.199-0.485C108.589,78.223,108.751,78.156,108.942,78.156z"/>
		<path fill="#B20933" d="M110.802,83.642c0-0.967,0.26-1.748,0.781-2.342c0.52-0.595,1.206-0.893,2.056-0.893
			c0.896,0,1.592,0.286,2.087,0.857s0.743,1.363,0.743,2.377c0,1.01-0.254,1.807-0.76,2.389c-0.507,0.583-1.197,0.875-2.07,0.875
			c-0.893,0-1.589-0.295-2.088-0.884C111.051,85.434,110.802,84.64,110.802,83.642z M111.972,83.642
			c0,1.571,0.556,2.357,1.667,2.357c0.518,0,0.925-0.211,1.219-0.632s0.441-0.996,0.441-1.726c0-1.552-0.554-2.327-1.661-2.327
			c-0.507,0-0.912,0.206-1.214,0.619C112.123,82.348,111.972,82.916,111.972,83.642z"/>
		<path fill="#B20933" d="M121.493,86.788v-3.644c0-0.667-0.101-1.134-0.301-1.4c-0.201-0.268-0.537-0.4-1.009-0.4
			c-0.253,0-0.519,0.075-0.795,0.228s-0.489,0.339-0.637,0.562v4.655h-1.111v-6.264h0.76l0.351,0.808
			c0.366-0.616,0.965-0.925,1.795-0.925c1.372,0,2.059,0.835,2.059,2.504v3.877H121.493z"/>
		<path fill="#B20933" d="M123.774,86.414l0.392-1.053c0.62,0.405,1.119,0.608,1.497,0.608c0.687,0,1.029-0.289,1.029-0.866
			c0-0.413-0.332-0.768-0.994-1.064c-0.511-0.233-0.855-0.411-1.032-0.532c-0.177-0.12-0.332-0.258-0.462-0.412
			c-0.131-0.154-0.228-0.317-0.292-0.491s-0.097-0.359-0.097-0.559c0-0.515,0.188-0.916,0.562-1.204
			c0.375-0.289,0.864-0.434,1.468-0.434c0.456,0,1.031,0.145,1.725,0.434l-0.316,1.029c-0.44-0.352-0.883-0.526-1.328-0.526
			c-0.265,0-0.488,0.062-0.669,0.187c-0.182,0.125-0.272,0.283-0.272,0.474c0,0.402,0.228,0.706,0.684,0.912l0.795,0.363
			c0.487,0.222,0.842,0.476,1.064,0.76c0.222,0.285,0.333,0.642,0.333,1.07c0,0.562-0.197,1.001-0.591,1.319
			c-0.394,0.317-0.939,0.477-1.638,0.477C124.975,86.905,124.354,86.741,123.774,86.414z"/>
		<path fill="#B20933" d="M136.283,86.788v-3.965c0-0.986-0.427-1.479-1.281-1.479c-0.269,0-0.521,0.082-0.754,0.248
			s-0.394,0.354-0.479,0.564v4.632h-1.111v-4.45c0-0.309-0.116-0.551-0.348-0.729s-0.539-0.266-0.921-0.266
			c-0.222,0-0.459,0.085-0.71,0.257s-0.43,0.36-0.535,0.567v4.62h-1.111v-6.264h0.725l0.369,0.726
			c0.429-0.562,0.965-0.843,1.608-0.843c0.897,0,1.524,0.279,1.883,0.837c0.125-0.238,0.357-0.437,0.696-0.597
			c0.339-0.16,0.688-0.24,1.046-0.24c0.647,0,1.148,0.192,1.503,0.576c0.354,0.385,0.532,0.924,0.532,1.617v4.188H136.283z"/>
		<path fill="#B20933" d="M142.512,86.068c-0.444,0.558-1.125,0.837-2.041,0.837c-0.491,0-0.917-0.179-1.278-0.535
			c-0.361-0.357-0.541-0.801-0.541-1.331c0-0.635,0.278-1.172,0.833-1.61c0.556-0.439,1.264-0.658,2.126-0.658
			c0.234,0,0.499,0.051,0.795,0.151c0-1.014-0.453-1.521-1.357-1.521c-0.694,0-1.228,0.188-1.603,0.562l-0.468-0.93
			c0.21-0.172,0.502-0.318,0.875-0.441c0.372-0.123,0.728-0.185,1.067-0.185c0.909,0,1.568,0.207,1.98,0.62
			c0.411,0.413,0.617,1.07,0.617,1.971v2.246c0,0.55,0.164,0.916,0.491,1.1v0.556c-0.452,0-0.791-0.064-1.015-0.193
			S142.609,86.365,142.512,86.068z M142.407,83.712c-0.351-0.078-0.597-0.117-0.737-0.117c-0.562,0-1.02,0.145-1.375,0.433
			c-0.355,0.289-0.532,0.63-0.532,1.023c0,0.651,0.384,0.977,1.152,0.977c0.562,0,1.059-0.267,1.492-0.801V83.712z"/>
		<path fill="#B20933" d="M149.121,86.788v-3.644c0-0.667-0.101-1.134-0.301-1.4c-0.201-0.268-0.537-0.4-1.009-0.4
			c-0.253,0-0.519,0.075-0.795,0.228s-0.489,0.339-0.637,0.562v4.655h-1.111v-6.264h0.76l0.351,0.808
			c0.366-0.616,0.965-0.925,1.795-0.925c1.372,0,2.059,0.835,2.059,2.504v3.877H149.121z"/>
		<path fill="#B20933" d="M155.349,86.068c-0.444,0.558-1.125,0.837-2.041,0.837c-0.491,0-0.917-0.179-1.278-0.535
			c-0.361-0.357-0.541-0.801-0.541-1.331c0-0.635,0.278-1.172,0.833-1.61c0.556-0.439,1.264-0.658,2.126-0.658
			c0.234,0,0.499,0.051,0.795,0.151c0-1.014-0.453-1.521-1.357-1.521c-0.694,0-1.228,0.188-1.603,0.562l-0.468-0.93
			c0.21-0.172,0.502-0.318,0.875-0.441c0.372-0.123,0.728-0.185,1.067-0.185c0.909,0,1.568,0.207,1.98,0.62
			c0.411,0.413,0.617,1.07,0.617,1.971v2.246c0,0.55,0.164,0.916,0.491,1.1v0.556c-0.452,0-0.791-0.064-1.015-0.193
			S155.447,86.365,155.349,86.068z M155.244,83.712c-0.351-0.078-0.597-0.117-0.737-0.117c-0.562,0-1.02,0.145-1.375,0.433
			c-0.355,0.289-0.532,0.63-0.532,1.023c0,0.651,0.384,0.977,1.152,0.977c0.562,0,1.059-0.267,1.492-0.801V83.712z"/>
		<path fill="#B20933" d="M157.876,88.502l0.602-0.89c0.647,0.434,1.244,0.649,1.79,0.649c0.503,0,0.899-0.087,1.19-0.26
			c0.291-0.174,0.436-0.39,0.436-0.646c0-0.507-0.366-0.761-1.099-0.761c-0.125,0-0.351,0.031-0.679,0.094s-0.583,0.094-0.766,0.094
			c-0.889,0-1.333-0.335-1.333-1.006c0-0.207,0.104-0.394,0.313-0.562s0.467-0.288,0.775-0.362
			c-0.881-0.413-1.322-1.131-1.322-2.152c0-0.655,0.228-1.201,0.685-1.638c0.456-0.437,1.02-0.655,1.69-0.655
			c0.616,0,1.098,0.127,1.444,0.381l0.556-0.667l0.725,0.685l-0.667,0.503c0.285,0.37,0.427,0.854,0.427,1.45
			c0,0.632-0.197,1.162-0.59,1.591c-0.394,0.429-0.911,0.674-1.55,0.736l-0.918,0.094c-0.109,0.012-0.255,0.054-0.438,0.126
			s-0.275,0.167-0.275,0.283c0,0.16,0.191,0.24,0.573,0.24c0.167,0,0.429-0.03,0.784-0.091c0.354-0.061,0.618-0.091,0.79-0.091
			c0.616,0,1.096,0.147,1.441,0.441c0.345,0.295,0.518,0.703,0.518,1.226c0,0.577-0.258,1.043-0.775,1.397
			c-0.517,0.355-1.17,0.532-1.962,0.532c-0.406,0-0.833-0.072-1.281-0.216C158.509,88.884,158.149,88.708,157.876,88.502z
			 M160.233,81.303c-0.386,0-0.701,0.136-0.945,0.409c-0.244,0.272-0.365,0.604-0.365,0.994c0,0.437,0.118,0.798,0.354,1.085
			c0.236,0.286,0.555,0.43,0.957,0.43c0.394,0,0.702-0.14,0.924-0.418c0.222-0.279,0.333-0.645,0.333-1.097
			c0-0.39-0.12-0.722-0.36-0.994C160.891,81.438,160.591,81.303,160.233,81.303z"/>
		<path fill="#B20933" d="M169.392,83.765h-4.515c0,0.732,0.201,1.296,0.603,1.69c0.354,0.343,0.811,0.515,1.368,0.515
			c0.636,0,1.166-0.186,1.591-0.556l0.468,0.801c-0.171,0.172-0.435,0.32-0.79,0.444c-0.444,0.164-0.939,0.246-1.485,0.246
			c-0.788,0-1.456-0.268-2.006-0.802c-0.612-0.588-0.918-1.38-0.918-2.374c0-1.033,0.313-1.861,0.941-2.485
			c0.562-0.558,1.226-0.837,1.994-0.837c0.893,0,1.593,0.252,2.1,0.755c0.491,0.483,0.737,1.125,0.737,1.924
			C169.479,83.332,169.45,83.558,169.392,83.765z M166.695,81.344c-0.495,0-0.911,0.159-1.246,0.479
			c-0.32,0.304-0.501,0.682-0.544,1.134h3.468c0-0.448-0.14-0.822-0.421-1.122C167.645,81.507,167.226,81.344,166.695,81.344z"/>
		<path fill="#B20933" d="M177.901,86.788v-3.965c0-0.986-0.427-1.479-1.281-1.479c-0.269,0-0.521,0.082-0.754,0.248
			s-0.394,0.354-0.479,0.564v4.632h-1.111v-4.45c0-0.309-0.116-0.551-0.348-0.729s-0.539-0.266-0.921-0.266
			c-0.222,0-0.459,0.085-0.71,0.257s-0.43,0.36-0.535,0.567v4.62h-1.111v-6.264h0.725l0.369,0.726
			c0.429-0.562,0.965-0.843,1.608-0.843c0.897,0,1.524,0.279,1.883,0.837c0.125-0.238,0.357-0.437,0.696-0.597
			c0.339-0.16,0.688-0.24,1.046-0.24c0.647,0,1.148,0.192,1.503,0.576c0.354,0.385,0.532,0.924,0.532,1.617v4.188H177.901z"/>
		<path fill="#B20933" d="M185.867,83.765h-4.515c0,0.732,0.201,1.296,0.603,1.69c0.354,0.343,0.811,0.515,1.368,0.515
			c0.636,0,1.166-0.186,1.591-0.556l0.468,0.801c-0.171,0.172-0.435,0.32-0.79,0.444c-0.444,0.164-0.939,0.246-1.485,0.246
			c-0.788,0-1.456-0.268-2.006-0.802c-0.612-0.588-0.918-1.38-0.918-2.374c0-1.033,0.313-1.861,0.941-2.485
			c0.562-0.558,1.226-0.837,1.994-0.837c0.893,0,1.593,0.252,2.1,0.755c0.491,0.483,0.737,1.125,0.737,1.924
			C185.954,83.332,185.925,83.558,185.867,83.765z M183.17,81.344c-0.495,0-0.911,0.159-1.246,0.479
			c-0.32,0.304-0.501,0.682-0.544,1.134h3.468c0-0.448-0.14-0.822-0.421-1.122C184.12,81.507,183.701,81.344,183.17,81.344z"/>
		<path fill="#B20933" d="M190.978,86.788v-3.644c0-0.667-0.101-1.134-0.301-1.4c-0.201-0.268-0.537-0.4-1.009-0.4
			c-0.253,0-0.519,0.075-0.795,0.228s-0.489,0.339-0.637,0.562v4.655h-1.111v-6.264h0.76l0.351,0.808
			c0.366-0.616,0.965-0.925,1.795-0.925c1.372,0,2.059,0.835,2.059,2.504v3.877H190.978z"/>
		<path fill="#B20933" d="M194.066,81.401h-0.725v-0.877h0.725v-1.31l1.111-0.428v1.737h1.719v0.877h-1.719v3.111
			c0,0.526,0.089,0.901,0.266,1.123c0.177,0.223,0.463,0.334,0.857,0.334c0.285,0,0.579-0.072,0.883-0.217l0.164,0.977
			c-0.46,0.117-0.965,0.176-1.515,0.176c-0.496,0-0.914-0.185-1.255-0.553c-0.341-0.368-0.512-0.834-0.512-1.395V81.401z"/>
	</g>
</g>
<g>
</g>
<g>
</g>
<g>
</g>
<g>
</g>
<g>
</g>
<g>
</g>
<g>
</g>
</svg>
